<svg width="98" height="98" viewBox="0 0 98 98" fill="none" xmlns="http://www.w3.org/2000/svg">
<rect width="98" height="98" fill="white"/>
<path fill-rule="evenodd" clip-rule="evenodd" d="M0 49V98H49H98V49V0H49H0V49ZM51.1844 16.0979C53.3116 16.5506 54.7445 17.9726 55.4586 20.3402C55.6283 20.903 55.6799 21.4815 55.6742 22.7589C55.6677 24.202 55.6232 24.5705 55.3569 25.3827C54.4965 28.007 52.4832 29.4746 49.7434 29.4746C47.0049 29.4746 44.9992 28.0136 44.1259 25.3827C43.8548 24.5659 43.8112 24.2102 43.8044 22.7589C43.7957 20.9108 44.0099 19.9278 44.6879 18.7062C45.8817 16.555 48.4627 15.5188 51.1844 16.0979ZM18.708 21.7018V27.236H20.6903H22.6726V21.7018V16.1675H23.7876H24.9027V21.7018V27.236H26.885H28.8673V21.7018V16.1675H29.9823H31.0973V22.6967V29.2259H23.7876H16.4779V22.6967V16.1675H17.5929H18.708V21.7018ZM35.5863 19.0442L35.6195 21.9209L38.0973 19.045L40.5752 16.169L41.8524 16.1683C42.8415 16.1676 43.1086 16.2026 43.0364 16.323C42.9851 16.4085 41.8109 17.777 40.4273 19.3643C39.0437 20.9516 37.9115 22.3053 37.9115 22.3727C37.9115 22.4401 39.1989 23.9956 40.7725 25.8295L43.6334 29.1637L42.2282 29.2019L40.823 29.2401L40.2882 28.6422C39.994 28.3134 38.8533 26.9951 37.7532 25.7126C36.6531 24.4301 35.709 23.3807 35.6553 23.3807C35.6015 23.3807 35.5575 24.6959 35.5575 26.3033V29.2259H34.4425H33.3274V22.6967V16.1675H34.4402H35.5529L35.5863 19.0442ZM67.5221 22.6967V29.2259H66.4071H65.292V23.6916V18.1574H63.3173H61.3427L61.275 18.6859C61.2377 18.9766 61.1488 20.4457 61.0772 21.9505C60.9241 25.1681 60.714 26.5125 60.1964 27.5856C59.6072 28.8069 58.5884 29.4114 57.2635 29.3258L56.6814 29.2881L56.6455 28.2621L56.6094 27.236H57.0934C57.9984 27.236 58.4813 26.6235 58.711 25.184C58.8251 24.4692 59.2212 17.7373 59.2212 16.5125V16.1675H63.3717H67.5221V22.6967ZM76.0139 16.7272C76.0997 17.0008 76.5052 18.204 76.9151 19.401C77.3252 20.598 78.2481 23.2983 78.9662 25.4016L80.2717 29.2259L79.0695 29.2239L77.8673 29.2218L77.353 27.5761L76.8386 25.9302L74.5034 25.8981L72.1681 25.866L71.8058 27.0796C71.6064 27.7471 71.3633 28.5031 71.2657 28.7595L71.0882 29.2259H69.9331H68.778L69.2528 27.8268C69.9817 25.6786 72.268 18.9987 72.7719 17.5449C73.019 16.8317 73.2212 16.2282 73.2212 16.2037C73.2212 16.1792 73.8146 16.175 74.5397 16.1944L75.8581 16.2297L76.0139 16.7272ZM48.9031 18.0376C48.1713 18.2212 47.7685 18.4754 47.2219 19.0987C46.3823 20.0562 46.1636 20.7996 46.1636 22.6967C46.1636 24.0957 46.2026 24.4139 46.4532 25.0596C47.4227 27.5574 50.3102 28.2647 52.1108 26.4453C52.9209 25.627 53.2781 24.7128 53.367 23.2295C53.4375 22.0548 53.2696 20.9029 52.9064 20.0699C52.5976 19.3618 51.8248 18.5348 51.2203 18.2654C50.595 17.9867 49.5253 17.8816 48.9031 18.0376ZM73.7169 20.9119C73.2992 22.2356 72.9082 23.4725 72.848 23.6605L72.7386 24.0025H74.4666C75.417 24.0025 76.1947 23.9547 76.1947 23.8962C76.1947 23.7661 74.5791 18.6102 74.5191 18.549C74.4956 18.5249 74.1346 19.5882 73.7169 20.9119ZM32.9807 39.9367C35.5059 40.4746 36.9563 42.6242 36.9563 45.8287C36.9563 47.8318 36.5206 49.1308 35.4709 50.2572C34.7597 51.0206 34.0501 51.4364 33.0594 51.671C31.634 52.0083 30.0228 51.8131 28.9317 51.1713C27.8016 50.5066 26.8323 49.1102 26.5079 47.6799C26.2761 46.6581 26.3388 44.4579 26.6263 43.5279C27.0517 42.1513 27.9877 40.9388 29.0531 40.3842C30.1026 39.838 31.6754 39.6588 32.9807 39.9367ZM22.8948 40.2892C25.05 41.2398 25.216 44.3148 23.1612 45.2249L22.6639 45.4451L23.2357 45.6124C23.993 45.8341 24.8361 46.6744 25.0326 47.4033C25.2131 48.073 25.1249 49.3189 24.8607 49.8319C24.5714 50.3934 24.0001 50.9239 23.326 51.2571C22.7604 51.5367 22.5974 51.5512 19.6062 51.59L16.4779 51.6306V45.8588C16.4779 42.6843 16.5196 40.0441 16.5708 39.9913C16.622 39.9387 17.9181 39.9191 19.4513 39.9477C22.0357 39.9961 22.2868 40.0209 22.8948 40.2892ZM40.6657 42.5019L40.6991 45.0825L42.7434 42.7248C43.8677 41.428 44.8852 40.2667 45.0044 40.1442C45.1792 39.9645 45.4253 39.9213 46.2743 39.9213C46.8535 39.9213 47.3274 39.9711 47.3274 40.0319C47.3274 40.0927 46.296 41.3271 45.0354 42.775C43.7748 44.223 42.7434 45.4601 42.7434 45.5241C42.7434 45.5882 43.8872 46.97 45.285 48.5949L47.8266 51.5495L46.555 51.5861C45.2964 51.6224 45.2801 51.6191 44.9874 51.2751C44.8246 51.084 43.7932 49.8923 42.6954 48.6269L40.6991 46.3261L40.6657 48.9689L40.6322 51.6117H39.6435H38.6549V45.8494C38.6549 42.6801 38.692 40.0498 38.7375 40.0043C38.7829 39.9586 39.2278 39.9213 39.7261 39.9213H40.6321L40.6657 42.5019ZM54.4806 40.0768C54.5475 40.1623 54.8841 41.0717 55.2285 42.0977C56.0375 44.507 58.3019 51.1097 58.4185 51.3991C58.5013 51.6046 58.4239 51.619 57.4129 51.5857L56.3174 51.5495L55.8652 50.1193L55.4131 48.6891H53.3254H51.2378L50.7915 50.1193L50.3454 51.5495L49.2807 51.5853L48.2163 51.621L48.5085 50.7769C48.6693 50.3126 49.552 47.7382 50.47 45.0559C51.3881 42.3736 52.1749 40.1211 52.2185 40.0502C52.3352 39.8605 54.3298 39.8839 54.4806 40.0768ZM68.7313 45.7976L68.7636 51.6117H67.7092H66.6549V46.6992V41.7868H64.8826H63.1103L62.9544 44.6783C62.7753 48.0021 62.5893 49.2561 62.1377 50.1825C61.6532 51.1765 60.7554 51.7333 59.6341 51.7353C58.9051 51.7367 58.8496 51.6654 58.8496 50.7278V49.8706H59.2132C60.1538 49.8706 60.6134 49.3401 60.8203 48.0161C60.8907 47.5654 61.0064 45.8536 61.0774 44.2119C61.1483 42.5703 61.2377 40.9325 61.276 40.5724L61.3458 39.9176L65.0224 39.9505L68.6991 39.9835L68.7313 45.7976ZM76.2859 40.0768C76.3528 40.1623 76.6894 41.0717 77.0338 42.0977C77.8428 44.507 80.1073 51.1097 80.2238 51.3991C80.3066 51.6046 80.2292 51.619 79.2182 51.5857L78.1227 51.5495L77.6705 50.1193L77.2184 48.6891H75.1307H73.0431L72.5968 50.1193L72.1507 51.5495L71.0861 51.5853L70.0216 51.621L70.3138 50.7769C70.4746 50.3126 71.3573 47.7382 72.2753 45.0559C73.1934 42.3736 73.9802 40.1211 74.0238 40.0502C74.1405 39.8605 76.1351 39.8839 76.2859 40.0768ZM30.8939 41.65C29.8959 41.9062 29.0692 42.7534 28.6585 43.9411C28.3359 44.8741 28.3604 46.9644 28.7042 47.8349C29.0608 48.7378 29.5124 49.2798 30.2386 49.6767C30.8014 49.9841 30.9682 50.0157 31.8189 49.976C32.631 49.9382 32.8513 49.8767 33.3274 49.555C34.0846 49.0437 34.6314 48.098 34.8204 46.973C35.2031 44.6957 34.4889 42.6409 33.0578 41.902C32.5314 41.6301 31.4582 41.5051 30.8939 41.65ZM18.4602 43.2792V44.8959L19.792 44.8932C21.8002 44.8891 22.5899 44.4219 22.5899 43.2378C22.5899 42.5861 22.3943 42.2135 21.8903 41.9049C21.5563 41.7005 21.262 41.6633 19.9779 41.6629L18.4602 41.6624V43.2792ZM53.2243 42.2843C53.1726 42.4553 52.8282 43.5517 52.459 44.7208C52.0897 45.89 51.7876 46.8833 51.7876 46.9283C51.7876 46.9733 52.4882 47.0102 53.3446 47.0102C54.7701 47.0102 54.8961 46.9917 54.8354 46.7925C54.6789 46.2788 53.8518 43.6426 53.5965 42.8439C53.3529 42.0819 53.3064 42.0122 53.2243 42.2843ZM75.0296 42.2843C74.9779 42.4553 74.6335 43.5517 74.2643 44.7208C73.895 45.89 73.5929 46.8833 73.5929 46.9283C73.5929 46.9733 74.2935 47.0102 75.1499 47.0102C76.5754 47.0102 76.7014 46.9917 76.6407 46.7925C76.4842 46.2788 75.6571 43.6426 75.4018 42.8439C75.1582 42.0819 75.1117 42.0122 75.0296 42.2843ZM18.4878 48.1605L18.5221 49.9327L20.0708 49.9668C21.4743 49.9977 21.6716 49.9744 22.1766 49.7181C22.8989 49.3515 23.0652 49.0129 23.0114 48.0194C22.9746 47.3397 22.9204 47.1839 22.6344 46.937C22.1414 46.5113 21.5378 46.3898 19.9126 46.3891L18.4534 46.3883L18.4878 48.1605ZM26.7457 61.6409C28.3631 62.0629 29.9948 63.2296 30.9166 64.6237C31.4212 65.3869 31.9578 66.7671 31.962 67.3128L31.9646 67.6548H30.4355H28.9065L28.7657 67.1831C28.5979 66.6208 27.9595 65.6944 27.4425 65.263C25.6413 63.7597 22.9118 63.8955 21.2835 65.5693C20.1459 66.7386 19.5752 68.5274 19.5752 70.924C19.5752 73.2554 20.1253 74.9051 21.3283 76.1819C22.2567 77.1672 22.918 77.4175 24.5929 77.4175C25.8579 77.4175 26.0078 77.391 26.6805 77.0489C27.5231 76.6203 28.373 75.7291 28.6999 74.9311L28.9292 74.3714L30.4628 74.3711L31.9963 74.3706L31.9172 74.8991C31.794 75.7223 30.9165 77.3943 30.2436 78.0876C29.4632 78.8919 28.4383 79.5413 27.3377 79.9291C26.0155 80.3948 23.7405 80.4734 22.3151 80.1026C21.0971 79.7856 20.5013 79.4986 19.5685 78.7794C17.9279 77.5145 16.828 75.4574 16.467 72.9788C16.2509 71.496 16.3884 68.5975 16.7314 67.4061C17.6981 64.0466 20.1165 61.8237 23.2194 61.4423C24.2683 61.3133 25.8264 61.4011 26.7457 61.6409ZM64.1468 70.8572L64.1786 79.967H62.5681H60.9576L60.9258 72.2253L60.8938 64.4835L58.1372 64.45C56.6211 64.4316 55.3805 64.4487 55.3805 64.488C55.3805 65.2385 54.8465 73.718 54.7542 74.4327C54.4547 76.7533 53.8871 78.1148 52.8059 79.1068C51.9736 79.8702 51.2125 80.117 49.8479 80.0657L48.8761 80.0292L48.8413 78.5827L48.8066 77.1363L49.3369 77.1917C50.0887 77.2701 50.8922 76.8366 51.2658 76.151C51.7315 75.2965 51.8984 74.1232 52.094 70.3287C52.3953 64.4851 52.5421 62.0063 52.5968 61.8395C52.6373 61.7159 53.8574 61.6896 58.3815 61.7151L64.115 61.7475L64.1468 70.8572ZM70.3717 64.8407V67.9962L72.8186 68.0611C74.5323 68.1066 75.4883 68.1875 76.0089 68.331C78.01 68.8826 79.5951 70.5709 80.0212 72.6044C80.3101 73.9832 80.1032 75.8738 79.5428 76.9764C79.1797 77.691 78.0356 78.8745 77.3413 79.2538C76.1479 79.9058 75.6269 79.967 71.2749 79.967H67.2743V70.8261V61.6853H68.823H70.3717V64.8407ZM42.8355 62.1922C44.8005 62.9247 45.4569 63.9557 46.1543 67.4061C47.1018 72.0931 47.3331 74.6685 46.9082 75.8008C46.4571 77.0029 45.8558 77.564 44.6292 77.9274C43.7052 78.2013 43.6208 78.3866 43.7296 79.9048C43.8383 81.4238 43.7438 81.8071 43.1214 82.3716C41.7527 83.6128 39.2069 83.1621 38.1542 81.4921C37.9488 81.1664 37.6573 80.8694 37.5065 80.8322C37.3553 80.795 37.1795 80.6139 37.1146 80.4286C37.0196 80.1575 37.0493 80.0211 37.2684 79.7239C37.73 79.0971 37.5256 78.3503 36.8925 78.3503C36.3561 78.3503 35.9565 77.9091 35.6805 77.0126C35.3266 75.8618 34.8531 73.7073 34.7583 72.816C34.7147 72.4056 34.5988 71.6221 34.5008 71.0749C34.002 68.2902 34.047 66.5415 34.6495 65.2922C35.3099 63.9231 37.1493 62.4609 38.7926 61.9987C39.7853 61.7195 41.8299 61.8172 42.8355 62.1922ZM39.1587 62.6047C38.4981 62.8444 38.454 63.0288 38.8722 63.8031C39.2235 64.4539 39.2605 64.4829 39.7216 64.4697C39.9866 64.462 40.5102 64.4117 40.885 64.3579L41.5664 64.2599L41.3346 64.5224C41.0479 64.8473 40.5638 65.0028 39.5221 65.1051C37.81 65.2731 36.7843 65.7887 36.4237 66.6626C36.2332 67.1239 36.2938 67.97 36.7216 70.8261C36.8958 71.989 37.1259 73.5239 37.2331 74.237C37.5475 76.3304 38.0821 77.2347 39.1231 77.4334C39.8638 77.575 42.9451 77.2867 43.8915 76.9873C45.1937 76.5756 45.9059 75.829 45.9748 74.8033C46.047 73.728 45.9822 73.4236 45.649 73.2713C45.4755 73.1918 45.1899 73.1269 45.0145 73.1269C44.7362 73.1269 44.7164 73.1015 44.8596 72.9282C44.9739 72.7899 45.1469 72.7495 45.4288 72.7955L45.8336 72.8614L45.7603 72.2791C45.6779 71.6251 45.4607 71.3858 44.9498 71.3858C44.5439 71.3858 44.4948 71.2032 44.8496 71.0127C45.0256 70.9182 45.1691 70.9182 45.3451 71.0127C45.6353 71.1685 45.6416 71.1285 45.4607 70.2819C45.3479 69.7535 45.2729 69.6437 44.9467 69.5296C44.7367 69.4561 44.4548 69.3959 44.3203 69.3959C44.1104 69.3959 44.0991 69.3678 44.2401 69.1972C44.357 69.0559 44.5269 69.0185 44.8284 69.0676L45.2523 69.1366L45.1874 68.5587C45.1133 67.8997 44.899 67.6855 44.2006 67.5735C43.8209 67.5125 43.7579 67.4655 43.8718 67.3277C44.0392 67.1253 44.4018 67.1077 44.7338 67.2861C44.913 67.3823 44.9733 67.3745 44.9727 67.255C44.9717 67.0067 44.7293 66.131 44.5761 65.8227C44.428 65.5239 43.6172 65.0431 43.2619 65.0431C43.1423 65.0431 42.9469 64.8771 42.8275 64.6743L42.6104 64.3054L43.4203 64.3814C43.9809 64.4339 44.2301 64.4144 44.2301 64.3178C44.2301 64.0966 42.9999 63.175 42.1858 62.7865C41.5639 62.4897 41.2907 62.4332 40.5133 62.441C40.0022 62.4461 39.3927 62.5198 39.1587 62.6047ZM43.3703 67.5949C43.7149 69.0512 43.9796 71.1172 43.9677 72.2563L43.9579 73.1891L43.666 71.5102C43.5054 70.5867 43.2871 69.1876 43.181 68.401C43.0747 67.6144 42.9596 66.7749 42.925 66.5355C42.8129 65.7586 43.0942 66.4278 43.3703 67.5949ZM41.1051 66.6048C41.5384 66.9094 41.4323 67.033 40.738 67.033C40.0477 67.033 38.6051 67.3959 37.7542 67.7837C37.4659 67.915 37.1605 68.0237 37.0752 68.0252C36.8036 68.03 36.9087 67.8388 37.2611 67.687C37.4485 67.6063 38.0478 67.2869 38.5929 66.9773C39.4022 66.5176 39.6984 66.414 40.2069 66.4128C40.5725 66.4118 40.9436 66.4911 41.1051 66.6048ZM42.4473 67.7345C42.7782 69.9246 43.1149 72.6812 43.1061 73.1269L43.0976 73.5622L42.9287 73.1008C42.6378 72.3065 42.2428 69.6515 42.1645 67.9657C42.1233 67.0765 42.1284 66.3848 42.1758 66.4287C42.2233 66.4725 42.3454 67.0601 42.4473 67.7345ZM35.2446 68.401C35.3078 71.0014 36.078 75.6125 36.6146 76.6027C36.8458 77.0292 36.8377 76.8581 36.5594 75.4139C35.8561 71.7648 35.5252 69.7142 35.3172 67.717C35.2071 66.6592 35.2031 66.6966 35.2446 68.401ZM41.3805 68.3763L41.6903 68.5876L41.2566 68.6211C40.4521 68.6834 38.9703 69.0497 38.0631 69.4105C37.0446 69.8157 37.0443 69.8157 37.0443 69.6416C37.0443 69.5715 37.1809 69.462 37.3479 69.3982C37.515 69.3345 37.8913 69.1292 38.1842 68.9419C39.5849 68.0467 40.6273 67.8623 41.3805 68.3763ZM41.5044 70.1221C41.8099 70.3201 41.8025 70.3242 40.9469 70.4207C40.036 70.5234 39.3564 70.7114 38.0545 71.2203C37.622 71.3893 37.2317 71.488 37.1872 71.4396C37.1426 71.3913 37.1675 71.3296 37.2425 71.3025C37.3174 71.2754 37.875 70.9662 38.4814 70.6156C39.0879 70.265 39.7513 69.9369 39.9558 69.8867C40.4402 69.7674 41.1156 69.87 41.5044 70.1221ZM70.4006 74.0286L70.4336 77.2931L72.354 77.29C74.3892 77.2867 74.9012 77.191 75.7233 76.6611C75.975 76.4988 76.3374 76.0989 76.5286 75.7724C76.8398 75.2409 76.8761 75.062 76.8761 74.0596C76.8761 73.0963 76.833 72.8631 76.5664 72.3866C76.1606 71.661 75.3717 71.0695 74.5833 70.8998C74.2363 70.825 73.1458 70.764 72.16 70.764H70.3676L70.4006 74.0286ZM41.6185 71.7918C42.1953 72.0872 42.0436 72.2178 41.0442 72.2867C40.3582 72.3339 39.7288 72.4851 38.8644 72.8101C38.1961 73.0615 37.5867 73.2462 37.5103 73.2207C37.3834 73.1781 38.2535 72.6464 39.636 71.9215C40.246 71.6018 41.1341 71.5437 41.6185 71.7918ZM41.8477 73.5087C42.0569 73.5818 42.2586 73.7217 42.2959 73.8196C42.3489 73.9582 42.2364 73.9975 41.7872 73.9975C41.1539 73.9975 39.6901 74.374 38.8692 74.7481C38.5809 74.8795 38.2071 74.9882 38.0384 74.9897C37.8131 74.9916 37.9939 74.8404 38.7198 74.4196C40.5699 73.3472 41.0153 73.2174 41.8477 73.5087ZM41.9623 78.5726C41.4934 78.7291 41.2636 78.7434 40.8783 78.6401C40.3119 78.4884 40.3124 78.4869 40.5752 79.4695C40.6758 79.8457 40.7608 80.5173 40.764 80.9619C40.7695 81.724 40.7799 81.7525 40.9454 81.4594C41.0419 81.2884 41.1578 80.8349 41.2027 80.4517L41.2845 79.7548L41.9661 79.5392C42.4019 79.4013 42.6905 79.3667 42.7665 79.443C42.8321 79.5088 42.9601 79.9753 43.0511 80.4799L43.2166 81.3972L43.2278 79.8737L43.2389 78.3503L42.8982 78.3622C42.7108 78.3687 42.2897 78.4634 41.9623 78.5726Z" fill="#231F20"/>
</svg>
